<?xml version="1.0" encoding="UTF-8"?>
<svg xmlns="http://www.w3.org/2000/svg" viewBox="0 0 1200 400">
  <defs>
    <style>
      .cls-1 {
        fill: #0d1129;
      }

      .cls-2 {
        fill: #fff;
      }

      .cls-3 {
        fill: #28a9e1;
      }
    </style>
  </defs>
  <g id="Layer_1" data-name="Layer 1">
    <rect class="cls-1" width="1200" height="400"/>
  </g>
  <g id="Layer_2" data-name="Layer 2">
    <g>
      <g>
        <path class="cls-2" d="M397.43,158.89l-28.58,55.28v27.29h-20.11v-27.29l-28.58-55.28h22.82l16,34.58,15.88-34.58h22.58Z"/>
        <path class="cls-2" d="M467.07,206.23c2.9,3.73,4.35,7.98,4.35,12.76,0,6.9-2.41,12.37-7.23,16.41-4.82,4.04-11.55,6.06-20.17,6.06h-38.47v-82.57h37.17c8.39,0,14.96,1.92,19.7,5.76,4.74,3.84,7.12,9.06,7.12,15.64,0,4.86-1.28,8.9-3.82,12.12-2.55,3.22-5.94,5.45-10.17,6.71,4.78,1.02,8.63,3.39,11.53,7.12ZM425.66,192.3h13.17c3.29,0,5.82-.73,7.59-2.18,1.76-1.45,2.65-3.59,2.65-6.41s-.88-4.98-2.65-6.47c-1.76-1.49-4.29-2.23-7.59-2.23h-13.17v17.29ZM448.3,222.94c1.84-1.53,2.76-3.74,2.76-6.65s-.96-5.17-2.88-6.82c-1.92-1.65-4.57-2.47-7.94-2.47h-14.58v18.23h14.82c3.37,0,5.98-.76,7.82-2.29Z"/>
        <path class="cls-2" d="M503.18,175v16.7h26.94v15.53h-26.94v18.12h30.47v16.11h-50.58v-82.57h50.58v16.11h-30.47Z"/>
        <path class="cls-2" d="M588.81,241.46l-17.17-31.17h-4.82v31.17h-20.11v-82.57h33.76c6.51,0,12.06,1.14,16.64,3.41,4.59,2.28,8.02,5.39,10.29,9.35,2.27,3.96,3.41,8.37,3.41,13.23,0,5.49-1.55,10.39-4.65,14.7-3.1,4.31-7.67,7.37-13.7,9.18l19.06,32.7h-22.7ZM566.81,196.06h12.47c3.68,0,6.45-.9,8.29-2.7,1.84-1.8,2.76-4.35,2.76-7.65s-.92-5.61-2.76-7.41c-1.84-1.8-4.61-2.7-8.29-2.7h-12.47v20.47Z"/>
        <path class="cls-3" d="M707.96,198.59c-2.2,3.96-5.57,7.16-10.12,9.59-4.55,2.43-10.19,3.65-16.94,3.65h-12.47v29.64h-20.11v-82.57h32.58c6.59,0,12.15,1.14,16.7,3.41,4.55,2.28,7.96,5.41,10.23,9.41,2.27,4,3.41,8.59,3.41,13.76,0,4.78-1.1,9.16-3.29,13.11ZM687.96,193.12c1.88-1.8,2.82-4.35,2.82-7.65s-.94-5.84-2.82-7.65c-1.88-1.8-4.75-2.7-8.59-2.7h-10.94v20.7h10.94c3.84,0,6.7-.9,8.59-2.7Z"/>
        <path class="cls-3" d="M763.83,241.46l-17.17-31.17h-4.82v31.17h-20.11v-82.57h33.76c6.51,0,12.06,1.14,16.64,3.41,4.59,2.28,8.02,5.39,10.29,9.35,2.27,3.96,3.41,8.37,3.41,13.23,0,5.49-1.55,10.39-4.65,14.7-3.1,4.31-7.67,7.37-13.7,9.18l19.06,32.7h-22.7ZM741.84,196.06h12.47c3.68,0,6.45-.9,8.29-2.7,1.84-1.8,2.76-4.35,2.76-7.65s-.92-5.61-2.76-7.41c-1.84-1.8-4.61-2.7-8.29-2.7h-12.47v20.47Z"/>
        <path class="cls-3" d="M818.53,158.89v82.57h-20.11v-82.57h20.11Z"/>
        <path class="cls-3" d="M850.81,236.88c-6.47-3.61-11.61-8.65-15.41-15.11-3.8-6.47-5.7-13.74-5.7-21.82s1.9-15.33,5.7-21.76c3.8-6.43,8.94-11.45,15.41-15.06,6.47-3.61,13.59-5.41,21.35-5.41s14.88,1.81,21.35,5.41c6.47,3.61,11.57,8.63,15.29,15.06,3.72,6.43,5.59,13.68,5.59,21.76s-1.88,15.35-5.65,21.82c-3.76,6.47-8.86,11.51-15.29,15.11-6.43,3.61-13.53,5.41-21.29,5.41s-14.88-1.8-21.35-5.41ZM887.98,217.35c3.96-4.39,5.94-10.19,5.94-17.41s-1.98-13.11-5.94-17.47c-3.96-4.35-9.23-6.53-15.82-6.53s-11.98,2.16-15.94,6.47c-3.96,4.31-5.94,10.16-5.94,17.53s1.98,13.11,5.94,17.47c3.96,4.35,9.27,6.53,15.94,6.53s11.86-2.2,15.82-6.59Z"/>
        <path class="cls-3" d="M967.68,241.46l-17.17-31.17h-4.82v31.17h-20.11v-82.57h33.76c6.51,0,12.06,1.14,16.64,3.41,4.59,2.28,8.02,5.39,10.29,9.35,2.27,3.96,3.41,8.37,3.41,13.23,0,5.49-1.55,10.39-4.65,14.7-3.1,4.31-7.67,7.37-13.7,9.18l19.06,32.7h-22.7ZM945.68,196.06h12.47c3.68,0,6.45-.9,8.29-2.7,1.84-1.8,2.76-4.35,2.76-7.65s-.92-5.61-2.76-7.41c-1.84-1.8-4.61-2.7-8.29-2.7h-12.47v20.47Z"/>
        <path class="cls-3" d="M1022.37,158.89v82.57h-20.11v-82.57h20.11Z"/>
        <path class="cls-3" d="M1096.36,158.89v16.11h-21.88v66.46h-20.11v-66.46h-21.88v-16.11h63.87Z"/>
        <path class="cls-3" d="M1177.28,158.89l-28.58,55.28v27.29h-20.11v-27.29l-28.58-55.28h22.82l16,34.58,15.88-34.58h22.58Z"/>
        <path class="cls-2" d="M241.58,178.42c3.53-6.39,8.45-11.37,14.76-14.94,6.31-3.57,13.47-5.35,21.47-5.35,9.8,0,18.19,2.59,25.17,7.76,6.98,5.17,11.64,12.23,14,21.17h-22.11c-1.65-3.45-3.98-6.08-7-7.88-3.02-1.8-6.45-2.7-10.29-2.7-6.2,0-11.22,2.16-15.06,6.47-3.84,4.31-5.76,10.08-5.76,17.29s1.92,12.98,5.76,17.29c3.84,4.31,8.86,6.47,15.06,6.47,3.84,0,7.27-.9,10.29-2.71,3.02-1.8,5.35-4.43,7-7.88h22.11c-2.35,8.94-7.02,15.98-14,21.11-6.98,5.14-15.37,7.71-25.17,7.71-8,0-15.16-1.78-21.47-5.35-6.31-3.57-11.23-8.53-14.76-14.88-3.53-6.35-5.29-13.6-5.29-21.76s1.76-15.43,5.29-21.82Z"/>
      </g>
      <g>
        <path class="cls-3" d="M198.71,226.1c-.7-2.52-2.39-3.5-4.44-4.8-.52-3.51.98-8.43-1.11-11.41-1.04-1.48-2.88-2.63-4.74-2.71h-23.14v4.78h23.12c.2,0,.96.96,1.04,1.35.14.71.12,7.5-.04,7.99-3.66,2.24-5.78,5.75-3.97,10.03,3.16,7.49,15.83,3.92,13.28-5.23Z"/>
        <path class="cls-2" d="M201.83,189.32c-2.64-6-10.87-5.05-13.41.6h-23.12v4.77h23.12c3.84,9.2,17.4,3.7,13.41-5.37Z"/>
        <path class="cls-3" d="M189.81,149.59c-5.11,1.26-6.65,8.41-2.88,12.01.72.69,1.86.91,2.48,1.69.2.6.12,8.26-.11,8.74-.06.14-.49.57-.59.6h-23.42v4.77h23.72c7.14-1.3,4.89-8.8,5.2-14.11,8.48-3.49,4.95-16.02-4.4-13.71Z"/>
        <path class="cls-3" d="M35.76,221.61c.35-2.47-.42-5.98.02-8.3.08-.4.75-1.27,1.04-1.35h23.82v-4.78h-23.83c-1.85.09-3.7,1.23-4.74,2.71-2.09,2.98-.59,7.9-1.11,11.41-1.18,1-2.39,1.25-3.36,2.6-4.32,6.03,1.68,13.62,8.56,10.95,5.91-2.3,5.54-11.19-.4-13.24Z"/>
        <path class="cls-2" d="M60.64,189.91h-23.82c-2.52-5.75-11.06-6.55-13.49-.38-3.6,9.15,9.68,14.17,13.49,5.15h23.82v-4.77Z"/>
        <path class="cls-3" d="M60.64,172.63h-24.12c-.05,0-.53-.46-.59-.6-.23-.48-.31-8.14-.11-8.74,3.52-1.9,5.63-5.31,4.19-9.35-2.68-7.48-14.37-5.48-13.78,3.05.23,3.35,2.38,4.78,4.72,6.6.43,5.27-1.82,12.5,5.27,13.8h24.42s0-4.77,0-4.77Z"/>
        <path class="cls-3" d="M167.25,149.5l-1.19-.79c-19.7,0-38.37-6.14-53.45-18.69-14.31,12.47-33.52,18.57-52.43,18.69l-1.19.79c.53,20.13-2.19,43.03-.47,62.96,2.26,26.15,33.34,45.95,54.1,57.52,24.1-13.3,52.58-31.27,55.05-61.53,1.54-18.79-.75-40.01-.42-58.95ZM159.78,207.23c-2.12,25.89-26.48,41.26-47.1,52.64-17.76-9.9-44.35-26.84-46.28-49.21-1.47-17.05.85-36.64.4-53.86l1.02-.68c16.18-.1,32.61-5.32,44.86-15.99,12.9,10.74,28.87,15.99,45.72,15.99l1.02.68c-.29,16.2,1.67,34.35.36,50.43Z"/>
        <path class="cls-2" d="M111.13,164.22v-14.79c-10.42,8.34-23.94,12.43-37.27,12.51l-.89.59c.39,14.94-1.62,31.93-.35,46.72,1.62,18.73,23.15,33.07,38.5,41.77v-14.25c-10.96-6.21-26.34-16.45-27.5-29.83-.91-10.56.53-22.7.25-33.37l.63-.42c9.52-.06,19.17-2.98,26.62-8.94Z"/>
        <path class="cls-3" d="M154.01,192.82c-.11-10.14-.87-20.62-.69-30.3l-.89-.59c-13.62,0-26.58-3.96-37.34-12.04v100.74c3.4-1.91,6.88-3.96,10.3-6.17v-18.17s10.16-3.71,18.34-11.6c9.11-8.78,10.29-21.89,10.29-21.89h-.01ZM142.71,194.46c-.73,8.42-10.41,14.87-17.31,18.78v-43.2c7.17,2.68,10.76,3.11,16.76,3.14l.4.26c-.18,6.72.73,14.36.16,21.01Z"/>
      </g>
    </g>
  </g>
</svg>